<svg id="Layer_1" data-name="Layer 1" xmlns="http://www.w3.org/2000/svg" viewBox="0 0 314.56 327.91"><defs><style>.cls-1{fill:#dd2828;}.cls-2{fill:none;}</style></defs><title>Logo</title><polygon class="cls-1" points="223.85 114.31 188.38 141.69 203.22 183.43 239.45 155.47 223.85 114.31"/><polygon class="cls-2" points="150.24 37.46 86.19 220.56 188.38 141.69 151.34 37.46 150.24 37.46"/><polygon class="cls-1" points="86.19 220.56 60.71 293.43 203.22 183.43 188.38 141.69 86.19 220.56"/><polygon class="cls-1" points="265.65 135.24 239.95 101.88 223.85 114.31 239.45 155.47 265.65 135.24"/><polygon points="203.22 183.43 254.56 327.91 304.81 327.91 239.45 155.47 203.22 183.43"/><polygon points="22.56 269.68 86.19 220.56 150.24 37.46 151.34 37.46 188.38 141.69 223.85 114.31 180.52 0 123.77 0 0 327.91 48.65 327.91 60.71 293.43 48.26 303.04 22.56 269.68"/><polygon points="22.56 269.68 48.26 303.04 60.71 293.43 86.19 220.56 22.56 269.68"/><circle class="cls-1" cx="290.5" cy="90.25" r="24.07"/></svg>